<?xml version="1.0" encoding="UTF-8"?>
<!DOCTYPE svg PUBLIC "-//W3C//DTD SVG 1.1//EN" "http://www.w3.org/Graphics/SVG/1.1/DTD/svg11.dtd">
<!-- Creator: CorelDRAW -->
<svg xmlns="http://www.w3.org/2000/svg" xml:space="preserve" width="16.9362mm" height="16.928mm" version="1.1" style="shape-rendering:geometricPrecision; text-rendering:geometricPrecision; image-rendering:optimizeQuality; fill-rule:evenodd; clip-rule:evenodd"
viewBox="0 0 1693.62 1692.8"
 xmlns:xlink="http://www.w3.org/1999/xlink"
 xmlns:xodm="http://www.corel.com/coreldraw/odm/2003">
 <defs>
  <style type="text/css">
   <![CDATA[
    .fil0 {fill:#68B447;fill-rule:nonzero}
   ]]>
  </style>
 </defs>
 <g id="Layer_x0020_1">
  <metadata id="CorelCorpID_0Corel-Layer"/>
  <g id="_2259420263088">
   <path class="fil0" d="M230.21 1090.62l-2.12 -247.65 0 -6.35 12.7 -84.67c20.64,-131.76 79.9,-247.12 167.75,-334.96 87.84,-87.84 203.46,-147.64 334.7,-167.75l84.93 -12.7 6.88 -0.53 534.99 4.76 0 -236.01 -529.17 -4.23 -134.94 20.64c-182.03,27.52 -341.31,109.54 -462.23,230.45 -120.65,120.65 -203.2,280.46 -230.72,462.49l-20.11 134.41 2.38 241.04 234.96 1.06z"/>
   <g>
    <polygon class="fil0" points="1678.54,8.21 1678.01,7.68 1448.89,6.1 1448.89,241.05 1680.93,241.05 "/>
    <path class="fil0" d="M1680.66 320.42l-234.95 0 4.23 530.75 -0.53 6.88 -12.7 84.67c-20.11,131.5 -79.9,247.12 -167.48,334.96 -87.84,87.84 -203.2,147.11 -334.96,167.48l-84.67 12.7 -6.35 0 -571.24 -3.97 -39.16 -1.32 0 -38.1 -0.53 -38.1 78.85 -2.38 0.53 0.79 529.17 4.23 81.49 -12.7c114.3,-16.93 214.84,-68.79 291.04,-144.99 75.94,-76.2 128.06,-176.74 145.26,-291.57l12.44 -80.7 -3.7 -529.7 -530.23 -4.23 -80.96 12.17c-114.83,17.46 -215.37,69.32 -291.31,145.52 -76.2,76.2 -128.06,176.48 -144.99,291.04l-12.7 81.49 2.38 313 -313.8 11.38 2.12 213.78 2.12 303.74 838.2 6.09 134.41 -20.11c179.92,-27.52 337.61,-107.69 458.26,-226.22l9 -9c118,-120.12 198.97,-278.34 225.95,-457.73l20.64 -134.67 -5.83 -525.18zm-1140.62 479.16c19.84,-131.5 119.33,-230.98 251.35,-251.35l45.24 -6.88 305.59 2.12 2.65 306.12 -6.61 44.98c-20.37,132.29 -119.59,231.78 -251.62,251.35l-44.71 6.88 -306.39 -2.65 -2.12 -305.59 6.62 -44.98z"/>
   </g>
  </g>
 </g>
</svg>
